<svg width="25" height="24" viewBox="0 0 25 24" fill="none" xmlns="http://www.w3.org/2000/svg">
<path d="M23.122 18.1076L18.2029 13.1801V9.52668C18.2035 9.41564 18.1822 9.30556 18.1403 9.20276C18.0983 9.09996 18.0364 9.00646 17.9582 8.92762L9.5207 0.490119C9.44226 0.411036 9.34894 0.348266 9.24613 0.30543C9.14331 0.262594 9.03302 0.24054 8.92164 0.24054C8.81025 0.24054 8.69997 0.262594 8.59715 0.30543C8.49433 0.348266 8.40101 0.411036 8.32258 0.490119L0.728828 8.08387C0.649744 8.16231 0.586974 8.25563 0.544138 8.35845C0.501302 8.46126 0.479248 8.57155 0.479248 8.68293C0.479248 8.79432 0.501302 8.9046 0.544138 9.00742C0.586974 9.11024 0.649744 9.20356 0.728828 9.28199L9.16633 17.7195C9.24517 17.7977 9.33867 17.8596 9.44147 17.9016C9.54427 17.9435 9.65435 17.9648 9.76539 17.9642H13.4273L18.3463 22.8917C18.9796 23.525 19.8385 23.8807 20.7341 23.8807C21.6297 23.8807 22.4887 23.525 23.122 22.8917C23.7552 22.2584 24.111 21.3995 24.111 20.5039C24.111 19.6083 23.7552 18.7493 23.122 18.1161V18.1076ZM3.85914 7.34137L5.79133 9.28199L6.98945 8.08387L5.04883 6.15168L6.39039 4.81012L10.0101 8.43824L11.2082 7.24012L7.58008 3.62043L8.92164 2.27887L14.482 7.83918L8.07789 14.2432L2.51758 8.68293L3.85914 7.34137ZM21.9238 21.6851C21.6077 21.9994 21.18 22.1758 20.7341 22.1758C20.2883 22.1758 19.8606 21.9994 19.5445 21.6851L14.3723 16.5214C14.1925 16.3977 13.9881 16.3143 13.7732 16.2767H10.1113L9.26758 15.4329L15.6716 9.02887L16.5154 9.87262V13.5345C16.5163 13.7558 16.6042 13.968 16.7601 14.1251L21.9238 19.3057C22.2381 19.6219 22.4145 20.0496 22.4145 20.4954C22.4145 20.9412 22.2381 21.3689 21.9238 21.6851Z" fill="url(#paint0_linear)"/>
<path d="M21.9238 21.6851C21.6077 21.9994 21.18 22.1758 20.7341 22.1758C20.2883 22.1758 19.8606 21.9994 19.5445 21.6851L14.3723 16.5214C14.1925 16.3977 13.9881 16.3143 13.7732 16.2767H10.1113L9.26758 15.4329L15.6716 9.02887L16.5154 9.87262V13.5345C16.5163 13.7558 16.6042 13.968 16.7601 14.1251L21.9238 19.3057C22.2381 19.6219 22.4145 20.0496 22.4145 20.4954C22.4145 20.9412 22.2381 21.3689 21.9238 21.6851Z" fill="url(#paint1_linear)"/>
<defs>
<linearGradient id="paint0_linear" x1="12.2951" y1="0.24054" x2="12.2951" y2="23.8807" gradientUnits="userSpaceOnUse">
<stop stop-color="#FFA764"/>
<stop offset="1" stop-color="#F17F29"/>
</linearGradient>
<linearGradient id="paint1_linear" x1="12.2951" y1="0.24054" x2="12.2951" y2="23.8807" gradientUnits="userSpaceOnUse">
<stop stop-color="#FFA764"/>
<stop offset="1" stop-color="#F17F29"/>
</linearGradient>
</defs>
</svg>
