<svg width="32" height="27" viewBox="0 0 32 27" fill="none" xmlns="http://www.w3.org/2000/svg">
<path d="M15.915 0.890732C15.215 0.890732 14.9816 1.3574 14.515 1.82407L0.98164 23.9907C0.748306 24.2241 0.748306 24.6907 0.748306 24.9241C0.748306 26.0907 1.68164 26.5574 2.38164 26.5574H29.4483C30.3816 26.5574 31.0816 26.0907 31.0816 24.9241C31.0816 24.4574 31.0816 24.4574 30.8483 23.9907L17.5483 1.82407C17.0816 1.3574 16.615 0.890732 15.915 0.890732ZM15.915 4.39073L23.615 17.2241H21.7483L18.2483 13.7241L15.915 17.2241L13.5816 13.7241L10.0816 17.2241H7.98164L15.915 4.39073Z" fill="url(#paint0_linear)"/>
<defs>
<linearGradient id="paint0_linear" x1="15.915" y1="0.890732" x2="15.915" y2="26.5574" gradientUnits="userSpaceOnUse">
<stop stop-color="#7CB4F9"/>
<stop offset="1" stop-color="#6DA2E4"/>
</linearGradient>
</defs>
</svg>
