<svg width="0" height="0" class="hidden">
  <symbol  xmlns="http://www.w3.org/2000/svg" viewBox="0 0 47 34" id="logo">
    <path d="M18.363 24.373a8.884 8.884 0 11-17.768 0 8.884 8.884 0 0117.768 0zm25.642 0a8.884 8.884 0 11-17.77 0 8.884 8.884 0 0117.77 0z" fill="#197BBD"></path>
    <path d="M34.027 13.752a8.886 8.886 0 01-8.884 8.884 8.887 8.887 0 01-8.595-11.143 8.884 8.884 0 0117.479 2.259z" fill="#197BBD"></path>
    <path d="M18.363 24.373a8.884 8.884 0 01-8.884 8.884H35.12a8.884 8.884 0 01-8.696-10.713 8.887 8.887 0 01-9.996-7.056H9.479a8.884 8.884 0 018.884 8.885z" fill="#197BBD"></path>
    <path d="M16.428 15.489a8.929 8.929 0 01.12-3.996c-.742 1.332-2.965 3.995-5.915 3.995h5.795z" fill="#197BBD"></path>
    <circle cx="35.262" cy="11.047" r="8.015" transform="rotate(-30 35.262 11.047)" fill="#FFC145"></circle>
    <path d="M38.497 11.237c.286.495.36 1.01.223 1.544-.138.535-.434 1.01-.888 1.427l.345.598c.097.167.119.34.066.515a.63.63 0 01-.314.414.618.618 0 01-.506.06.65.65 0 01-.404-.32l-.312-.54a3.936 3.936 0 01-1.083.329 3.52 3.52 0 01-1.131-.042c-.263-.054-.449-.175-.556-.361a.61.61 0 01-.059-.48.605.605 0 01.295-.403.59.59 0 01.395-.074c.293.046.557.065.793.058a2.27 2.27 0 00.694-.157l-1.086-1.882c-1.431.509-2.451.235-3.06-.82-.308-.534-.381-1.075-.217-1.624.16-.556.503-1.037 1.031-1.445l-.184-.319a.667.667 0 01.249-.929.618.618 0 01.506-.06.65.65 0 01.403.32l.207.358c.602-.22 1.168-.28 1.696-.182.272.04.464.157.575.35a.647.647 0 01.065.49.61.61 0 01-.291.387.489.489 0 01-.311.064c-.286-.05-.64-.03-1.06.058l1.03 1.786c.71-.212 1.29-.256 1.74-.13.447.12.83.457 1.15 1.01zm-5.477-.84c.122.213.29.348.503.405.21.05.469.038.777-.037l-.925-1.602c-.234.204-.38.412-.437.625a.774.774 0 00.082.61zm4.143 2.653c.142-.185.236-.372.281-.562a.705.705 0 00-.066-.515.83.83 0 00-.422-.374c-.18-.076-.403-.097-.668-.065l.875 1.516z" fill="#404040"></path>
  </symbol>



  <symbol  xmlns="http://www.w3.org/2000/svg" viewBox="0 0 20 21" id="Overview">
    <path d="M1.758 19.005V1.92m0 17.085H18.84M5.594 12.097C7.822 10.063 9.42 8.9 11.222 7.284l1.118 4.38 4.873-4.107" stroke-width="2" stroke-linecap="round" stroke-linejoin="round"></path>
  </symbol>

  <symbol  xmlns="http://www.w3.org/2000/svg" viewBox="0 0 20 15" id="Transactions">
    <path d="M6.49 1.75h12.38M6.49 7.463h12.38M6.49 13.177h12.38M1.73 1.75h.008M1.73 7.463h.008m-.008 5.714h.008" stroke-width="2" stroke-linecap="round" stroke-linejoin="round"></path>
  </symbol>

  <symbol  xmlns="http://www.w3.org/2000/svg" viewBox="0 0 21 17" id="Cards">
    <path d="M17.663 1.463H2.936c-.904 0-1.636.784-1.636 1.75v10.5c0 .967.732 1.75 1.636 1.75h14.727c.904 0 1.637-.783 1.637-1.75v-10.5c0-.966-.733-1.75-1.637-1.75zm-16.363 5h18" stroke-width="2" stroke-linecap="round" stroke-linejoin="round"></path>
  </symbol>

  <symbol  xmlns="http://www.w3.org/2000/svg" viewBox="0 0 16 19" id="Invoices">
    <path d="M9.901 1.456H3.496a1.601 1.601 0 00-1.602 1.601V15.87a1.601 1.601 0 001.602 1.601h9.608a1.601 1.601 0 001.601-1.601V6.26L9.901 1.456z" stroke-width="2" stroke-linecap="round" stroke-linejoin="round"></path>
    <path d="M9.901 1.456V6.26h4.805"  stroke-width="2" stroke-linecap="round" stroke-linejoin="round"></path>
  </symbol>

  <symbol xmlns="http://www.w3.org/2000/svg" viewBox="0 0 25 25" id="Goals">
    <path d="M12.3 14.914a5.719 5.719 0 100-11.438 5.719 5.719 0 000 11.438z"  stroke-width="2" stroke-linecap="round" stroke-linejoin="round"></path>
    <path d="M9.203 14.683l-.988 7.443 4.085-2.451 4.084 2.45-.988-7.45" stroke-width="2" stroke-linecap="round" stroke-linejoin="round"></path>
  </symbol>

  <symbol  xmlns="http://www.w3.org/2000/svg" viewBox="0 0 20 20" id="Settings">
    <path d="M10.3 12.778a2.315 2.315 0 100-4.63 2.315 2.315 0 000 4.63z"  stroke-width="2" stroke-linecap="round" stroke-linejoin="round"></path>
    <path d="M16.01 12.778a1.272 1.272 0 00.255 1.405l.046.046a1.544 1.544 0 11-2.184 2.184l-.046-.047a1.273 1.273 0 00-1.404-.254 1.273 1.273 0 00-.772 1.165v.131a1.543 1.543 0 11-3.087 0v-.07a1.273 1.273 0 00-.833-1.165 1.273 1.273 0 00-1.405.255l-.046.046a1.542 1.542 0 01-2.519-.5 1.543 1.543 0 01.335-1.683l.047-.047a1.274 1.274 0 00.254-1.404 1.273 1.273 0 00-1.165-.772h-.131a1.543 1.543 0 110-3.086h.07a1.273 1.273 0 001.165-.834 1.273 1.273 0 00-.255-1.404l-.046-.046a1.543 1.543 0 112.183-2.184l.047.046a1.273 1.273 0 001.404.255h.062a1.273 1.273 0 00.772-1.165v-.131a1.543 1.543 0 013.086 0v.069a1.273 1.273 0 00.772 1.165 1.273 1.273 0 001.404-.254l.046-.047a1.542 1.542 0 012.52.501 1.543 1.543 0 01-.336 1.683l-.046.046a1.273 1.273 0 00-.255 1.405v.061a1.273 1.273 0 001.165.772h.132a1.544 1.544 0 010 3.087h-.07a1.273 1.273 0 00-1.165.771v0z"  stroke-width="2" stroke-linecap="round" stroke-linejoin="round"></path>
  </symbol>

  
  <symbol  xmlns="http://www.w3.org/2000/svg" viewBox="0 0 23 17" id="mail">
    <path d="M3.405.465h16c1.1 0 2 .9 2 2v12c0 1.1-.9 2-2 2h-16c-1.1 0-2-.9-2-2v-12c0-1.1.9-2 2-2z" ></path>
    <path d="M21.405 2.465l-10 7-10-7" stroke="#fff" stroke-width="2" stroke-linecap="round" stroke-linejoin="round"></path>
  </symbol>

  <symbol  xmlns="http://www.w3.org/2000/svg" viewBox="0 0 25 25" id="bell-indicator">
    <path d="M18.405 8.465a6 6 0 00-12 0c0 7-3 9-3 9h18s-3-2-3-9z" fill="#E3E3E3"></path>
    <path d="M14.135 21.465a2 2 0 01-3.46 0" stroke="#E3E3E3" stroke-width="2" stroke-linecap="round" stroke-linejoin="round"></path>
    <circle cx="18.106" cy="5.164" r="3.972" ></circle>
  </symbol>

  <symbol  xmlns="http://www.w3.org/2000/svg" viewBox="0 0 25 25" id="bell">
    <path d="M18.405 8.465a6 6 0 00-12 0c0 7-3 9-3 9h18s-3-2-3-9z" ></path>
    <path d="M14.135 21.465a2 2 0 01-3.46 0" stroke="#E3E3E3" stroke-width="2" stroke-linecap="round" stroke-linejoin="round"></path>
  </symbol>
</svg>