<svg width="31" height="23" viewBox="0 0 31 23" fill="none" xmlns="http://www.w3.org/2000/svg">
<path d="M29.9614 11.0549C28.6275 5.0245 26.6201 1.80584 23.6423 0.926649C23.0164 0.743043 22.3671 0.651315 21.7148 0.654339C20.8525 0.654339 20.1017 0.864388 19.3074 1.08702C18.3502 1.35555 17.2628 1.66056 15.6774 1.66056C14.092 1.66056 13.004 1.35618 12.0449 1.08764C11.25 0.864388 10.4997 0.654339 9.64005 0.654339C8.96552 0.652 8.29393 0.743435 7.64458 0.92602C4.6825 1.80144 2.67634 5.01884 1.32296 11.0512C-0.132289 17.5426 0.584018 21.6411 3.33164 22.5919C3.70827 22.7247 4.10455 22.7932 4.5039 22.7944C6.38617 22.7944 7.8955 21.2266 8.92689 19.9431C10.0922 18.4903 11.4563 17.7533 15.6774 17.7533C19.4476 17.7533 21.0079 18.2645 22.3556 19.9431C23.2027 20.9983 24.0033 21.7367 24.802 22.2014C25.8642 22.819 26.9257 22.9561 27.9565 22.602C29.5803 22.048 30.5111 20.5833 30.7236 18.2476C30.8852 16.4565 30.6362 14.1038 29.9614 11.0549ZM12.6587 10.7166H10.6463V12.729C10.6463 12.9959 10.5403 13.2519 10.3516 13.4406C10.1629 13.6293 9.90692 13.7353 9.64005 13.7353C9.37318 13.7353 9.11724 13.6293 8.92854 13.4406C8.73984 13.2519 8.63382 12.9959 8.63382 12.729V10.7166H6.62137C6.3545 10.7166 6.09857 10.6106 5.90986 10.4219C5.72116 10.2332 5.61515 9.97724 5.61515 9.71037C5.61515 9.4435 5.72116 9.18756 5.90986 8.99886C6.09857 8.81016 6.3545 8.70414 6.62137 8.70414H8.63382V6.69169C8.63382 6.42482 8.73984 6.16889 8.92854 5.98018C9.11724 5.79148 9.37318 5.68547 9.64005 5.68547C9.90692 5.68547 10.1629 5.79148 10.3516 5.98018C10.5403 6.16889 10.6463 6.42482 10.6463 6.69169V8.70414H12.6587C12.9256 8.70414 13.1815 8.81016 13.3702 8.99886C13.5589 9.18756 13.665 9.4435 13.665 9.71037C13.665 9.97724 13.5589 10.2332 13.3702 10.4219C13.1815 10.6106 12.9256 10.7166 12.6587 10.7166ZM17.9414 10.9682C17.6926 10.9682 17.4495 10.8944 17.2426 10.7562C17.0358 10.618 16.8746 10.4215 16.7794 10.1917C16.6842 9.96187 16.6593 9.70897 16.7078 9.46499C16.7563 9.221 16.8761 8.99689 17.052 8.82098C17.2279 8.64508 17.452 8.52529 17.696 8.47676C17.94 8.42822 18.1929 8.45313 18.4227 8.54833C18.6526 8.64353 18.849 8.80474 18.9872 9.01158C19.1254 9.21842 19.1992 9.4616 19.1992 9.71037C19.1992 10.044 19.0667 10.3639 18.8308 10.5998C18.5949 10.8356 18.275 10.9682 17.9414 10.9682ZM20.7085 13.7353C20.4596 13.7353 20.2163 13.6614 20.0094 13.5231C19.8025 13.3847 19.6413 13.1881 19.5462 12.9581C19.4511 12.7281 19.4264 12.475 19.4752 12.2309C19.5239 11.9869 19.644 11.7628 19.8203 11.587C19.9965 11.4112 20.2209 11.2917 20.4651 11.2435C20.7093 11.1953 20.9623 11.2207 21.192 11.3164C21.4218 11.412 21.618 11.5737 21.7559 11.781C21.8937 11.9882 21.9669 12.2317 21.9663 12.4806C21.9655 12.8137 21.8326 13.1328 21.5968 13.368C21.361 13.6032 21.0416 13.7353 20.7085 13.7353ZM20.7085 8.20103C20.4598 8.20103 20.2166 8.12726 20.0097 7.98906C19.8029 7.85085 19.6417 7.65441 19.5465 7.42458C19.4513 7.19475 19.4264 6.94185 19.4749 6.69787C19.5234 6.45388 19.6432 6.22977 19.8191 6.05386C19.995 5.87796 20.2192 5.75817 20.4632 5.70963C20.7071 5.6611 20.96 5.68601 21.1899 5.78121C21.4197 5.87641 21.6161 6.03762 21.7543 6.24446C21.8925 6.4513 21.9663 6.69448 21.9663 6.94325C21.9663 7.27683 21.8338 7.59676 21.5979 7.83263C21.362 8.06851 21.0421 8.20103 20.7085 8.20103ZM23.4757 10.9682C23.2269 10.9682 22.9837 10.8944 22.7769 10.7562C22.57 10.618 22.4088 10.4215 22.3136 10.1917C22.2184 9.96187 22.1935 9.70897 22.242 9.46499C22.2906 9.221 22.4104 8.99689 22.5863 8.82098C22.7622 8.64508 22.9863 8.52529 23.2303 8.47676C23.4743 8.42822 23.7272 8.45313 23.957 8.54833C24.1868 8.64353 24.3833 8.80474 24.5215 9.01158C24.6597 9.21842 24.7334 9.4616 24.7334 9.71037C24.7334 10.044 24.6009 10.3639 24.365 10.5998C24.1292 10.8356 23.8092 10.9682 23.4757 10.9682Z" fill="url(#paint0_linear)"/>
<defs>
<linearGradient id="paint0_linear" x1="15.6787" y1="0.654266" x2="15.6787" y2="22.7944" gradientUnits="userSpaceOnUse">
<stop stop-color="#22B04A"/>
<stop offset="1" stop-color="#1E9540"/>
</linearGradient>
</defs>
</svg>
